<svg width="118" height="52" viewBox="0 0 118 52" fill="none" xmlns="http://www.w3.org/2000/svg">
<path d="M16.864 18.2V30.08H11.824V18.2H16.864ZM16.864 33.992C16.864 38.072 15.4 39.92 11.344 41.12L9.52 37.28C11.008 36.656 11.824 35.648 11.824 33.992V31.04H16.864V33.992ZM34.8541 27.176C34.8541 32.144 32.9341 34.376 29.8141 35.048V18.2H34.8541V27.176ZM27.6061 30.968C27.9421 30.968 28.3741 30.944 28.8301 30.872V35.216C28.3501 35.264 27.8941 35.288 27.3901 35.288C22.8301 35.288 19.8541 33.344 19.8541 27.272V18.2H24.8941V27.344C24.8941 30.08 25.5901 30.968 27.6061 30.968ZM57.3533 18.2L58.1693 25.784H53.5373L50.7293 33.848L48.7133 28.472L52.3853 18.2H57.3533ZM43.7693 18.2L50.0333 35H45.4253L42.3053 25.784H38.1293L38.9213 18.2H43.7693ZM54.2813 35L53.4653 26.696H58.2653L59.1533 35H54.2813ZM37.1453 35L38.0333 26.696H42.3773L41.7773 35H37.1453ZM72.7278 19.016L71.7918 22.544C70.9518 22.184 70.1358 21.968 69.3438 21.848C68.5278 21.728 67.7598 21.704 66.9438 21.776V17.96C67.7838 17.888 68.5518 17.912 69.2718 18.008C70.5678 18.152 71.6958 18.512 72.7278 19.016ZM73.2318 29.792C73.2318 30.056 73.2078 30.32 73.1838 30.56H68.5038C68.5278 30.512 68.5278 30.44 68.5278 30.368C68.5278 28.136 61.2558 28.856 61.2558 23.288C61.2558 22.4 61.4238 21.632 61.7598 20.984C62.5278 19.448 64.0638 18.488 65.9598 18.104V22.76C65.9598 24.872 73.2318 24.104 73.2318 29.792ZM66.4638 31.52H72.9678C72.2958 33.632 70.3038 35 67.3758 35.24C67.0638 35.264 66.7278 35.288 66.3678 35.288C64.4718 35.288 62.4318 34.832 60.8718 34.04L62.0478 30.488C63.8717 31.184 65.2878 31.52 66.4638 31.52ZM90.19 27.176C90.19 32.144 88.27 34.376 85.15 35.048V18.2H90.19V27.176ZM82.942 30.968C83.278 30.968 83.71 30.944 84.166 30.872V35.216C83.686 35.264 83.23 35.288 82.726 35.288C78.166 35.288 75.19 33.344 75.19 27.272V18.2H80.23V27.344C80.23 30.08 80.926 30.968 82.942 30.968ZM99.1448 28.088H98.2328V35H93.1928V22.496H98.2328V25.112H99.1208C100.537 25.112 101.281 24.416 101.281 23.12C101.281 22.088 100.633 21.536 99.4328 21.536H93.1928V18.2C95.1368 18.032 97.1048 17.936 98.3768 17.936C103.681 17.936 106.201 19.664 106.201 22.472C106.201 24.632 104.857 25.928 103.657 26.312V26.384C105.529 27.008 106.633 28.304 106.633 30.224C106.633 32.984 104.113 35 99.3368 35H99.2168V31.424H99.4808C100.777 31.424 101.473 30.848 101.473 29.792C101.473 28.664 100.657 28.088 99.1448 28.088Z" fill="black"/>
</svg>
